<svg xmlns="http://www.w3.org/2000/svg" viewBox="0 0 120 120" fill="none">
  <!-- Flag Pole -->
  <rect x="26" y="16" width="6" height="88" rx="3" fill="#2C3E50" />
  <circle cx="29" cy="16" r="6" fill="#A0AEC0" />
  <circle cx="29" cy="16" r="3" fill="#EDF2F7" />
  <path d="M26 100H32V104H26Z" fill="#1A202C" />

  <!-- Flag Body -->
  <path d="M32 24C48 22 64 30 80 26C92 23 100 28 102 30V66C98 64 88 60 76 64C60 69 46 60 32 64V24Z" fill="#1A365D" />

  <!-- Indigo Waves / Gradient Layers -->
  <path d="M32 36C46 34 60 42 76 38C88 35 98 38 102 40V54C98 52 88 48 76 52C60 56 46 48 32 52V36Z" fill="#2B6CB0" opacity="0.8" />
  <path d="M32 50C48 54 62 67 76 64C88 60 98 64 102 66V62C98 58 88 56 76 60C62 63 48 50 32 46V50Z" fill="#0D233A" opacity="0.7" />

  <!-- Dye Drop & Ripple Symbol -->
  <circle cx="56" cy="44" r="11" fill="#EDF2F7" opacity="0.9" />
  <circle cx="56" cy="44" r="7" fill="#2B6CB0" />
  <circle cx="56" cy="44" r="3.5" fill="#FFF8E9" />
</svg>

